C:\Users\Nicos\Documents\OpenSimProjects\SprintingProject\Study1\PredictiveResults\IC_pred_Sprinting_optimum_28-October-2023__16-43-06_p02_maxVel_01___IKTD_Plus_4_GRF.mot
version=1
nRows=9
nColumns=127
inDegrees=yes
endheader
time	ground_force_vx	ground_force_vy	ground_force_vz	ground_force_px	ground_force_py	ground_force_pz	ground_torque_x	ground_torque_y	ground_torque_z	1_ground_force_vx	1_ground_force_vy	1_ground_force_vz	1_ground_force_px	1_ground_force_py	1_ground_force_pz	1_ground_torque_x	1_ground_torque_y	1_ground_torque_z	2_ground_force_vx	2_ground_force_vy	2_ground_force_vz	2_ground_force_px	2_ground_force_py	2_ground_force_pz	2_ground_torque_x	2_ground_torque_y	2_ground_torque_z	3_ground_force_vx	3_ground_force_vy	3_ground_force_vz	3_ground_force_px	3_ground_force_py	3_ground_force_pz	3_ground_torque_x	3_ground_torque_y	3_ground_torque_z	4_ground_force_vx	4_ground_force_vy	4_ground_force_vz	4_ground_force_px	4_ground_force_py	4_ground_force_pz	4_ground_torque_x	4_ground_torque_y	4_ground_torque_z	5_ground_force_vx	5_ground_force_vy	5_ground_force_vz	5_ground_force_px	5_ground_force_py	5_ground_force_pz	5_ground_torque_x	5_ground_torque_y	5_ground_torque_z	6_ground_force_vx	6_ground_force_vy	6_ground_force_vz	6_ground_force_px	6_ground_force_py	6_ground_force_pz	6_ground_torque_x	6_ground_torque_y	6_ground_torque_z	7_ground_force_vx	7_ground_force_vy	7_ground_force_vz	7_ground_force_px	7_ground_force_py	7_ground_force_pz	7_ground_torque_x	7_ground_torque_y	7_ground_torque_z	8_ground_force_vx	8_ground_force_vy	8_ground_force_vz	8_ground_force_px	8_ground_force_py	8_ground_force_pz	8_ground_torque_x	8_ground_torque_y	8_ground_torque_z	9_ground_force_vx	9_ground_force_vy	9_ground_force_vz	9_ground_force_px	9_ground_force_py	9_ground_force_pz	9_ground_torque_x	9_ground_torque_y	9_ground_torque_z	10_ground_force_vx	10_ground_force_vy	10_ground_force_vz	10_ground_force_px	10_ground_force_py	10_ground_force_pz	10_ground_torque_x	10_ground_torque_y	10_ground_torque_z	11_ground_force_vx	11_ground_force_vy	11_ground_force_vz	11_ground_force_px	11_ground_force_py	11_ground_force_pz	11_ground_torque_x	11_ground_torque_y	11_ground_torque_z	12_ground_force_vx	12_ground_force_vy	12_ground_force_vz	12_ground_force_px	12_ground_force_py	12_ground_force_pz	12_ground_torque_x	12_ground_torque_y	12_ground_torque_z	13_ground_force_vx	13_ground_force_vy	13_ground_force_vz	13_ground_force_px	13_ground_force_py	13_ground_force_pz	13_ground_torque_x	13_ground_torque_y	13_ground_torque_z
0.213049	-0.000000	0.000000	-0.000000	1.083939	0.220956	0.391252	0.000000	0.000000	0.000000	-0.000000	0.000000	-0.000000	1.108386	0.239638	0.413015	0.000000	0.000000	0.000000	-0.000000	0.000000	-0.000000	1.126051	0.248488	0.411271	0.000000	0.000000	0.000000	-0.000000	0.000000	-0.000000	1.123393	0.247136	0.388863	0.000000	0.000000	0.000000	-0.000000	0.000000	-0.000000	1.167856	0.286168	0.442858	0.000000	0.000000	0.000000	-0.000000	0.000000	-0.000000	1.139754	0.261614	0.406478	0.000000	0.000000	0.000000	-0.000000	0.000000	-0.000000	1.194569	0.314121	0.387305	0.000000	0.000000	0.000000	-0.000000	0.000000	0.000000	2.427239	0.080827	0.160762	0.000000	0.000000	0.000000	-0.000000	0.000000	0.000000	2.384404	0.086827	0.138663	0.000000	0.000000	0.000000	-0.000000	0.000000	0.000000	2.352702	0.086365	0.145193	0.000000	0.000000	0.000000	-0.000000	0.000000	0.000000	2.354655	0.081295	0.165438	0.000000	0.000000	0.000000	-0.000000	0.000000	0.000000	2.269414	0.097875	0.114240	0.000000	0.000000	0.000000	-0.000000	0.000000	0.000000	2.322919	0.086917	0.148618	0.000000	0.000000	0.000000	-0.000000	0.000000	0.000000	2.203785	0.089123	0.162318	0.000000	0.000000	0.000000
0.214530	-0.000000	0.000000	-0.000000	1.105017	0.223384	0.391549	0.000000	0.000000	0.000000	-0.000000	0.000000	-0.000000	1.129598	0.242046	0.413227	0.000000	0.000000	0.000000	-0.000000	0.000000	-0.000000	1.147309	0.250871	0.411434	0.000000	0.000000	0.000000	-0.000000	0.000000	-0.000000	1.144611	0.249508	0.389034	0.000000	0.000000	0.000000	-0.000000	0.000000	-0.000000	1.189368	0.288514	0.442864	0.000000	0.000000	0.000000	-0.000000	0.000000	-0.000000	1.161078	0.263975	0.406587	0.000000	0.000000	0.000000	-0.000000	0.000000	-0.000000	1.216154	0.316394	0.387199	0.000000	0.000000	0.000000	-0.000000	0.000000	0.000000	2.444614	0.079569	0.160323	0.000000	0.000000	0.000000	-0.000000	0.000000	0.000000	2.401763	0.085642	0.138333	0.000000	0.000000	0.000000	-0.000000	0.000000	0.000000	2.370203	0.085208	0.144796	0.000000	0.000000	0.000000	-0.000000	0.000000	0.000000	2.372163	0.080055	0.164956	0.000000	0.000000	0.000000	-0.000000	0.000000	0.000000	2.286881	0.096720	0.113938	0.000000	0.000000	0.000000	-0.000000	0.000000	0.000000	2.340413	0.085699	0.148194	0.000000	0.000000	0.000000	-0.000000	0.000000	0.000000	2.221250	0.087662	0.161786	0.000000	0.000000	0.000000
0.215177	-0.000000	0.000000	-0.000000	1.114281	0.224418	0.391693	0.000000	0.000000	0.000000	-0.000000	0.000000	-0.000000	1.138918	0.243072	0.413332	0.000000	0.000000	0.000000	-0.000000	0.000000	-0.000000	1.156647	0.251887	0.411516	0.000000	0.000000	0.000000	-0.000000	0.000000	-0.000000	1.153930	0.250520	0.389119	0.000000	0.000000	0.000000	-0.000000	0.000000	-0.000000	1.198811	0.289517	0.442872	0.000000	0.000000	0.000000	-0.000000	0.000000	-0.000000	1.170441	0.264983	0.406644	0.000000	0.000000	0.000000	-0.000000	0.000000	-0.000000	1.225618	0.317366	0.387156	0.000000	0.000000	0.000000	-0.000000	0.000000	0.000000	2.452070	0.079007	0.160130	0.000000	0.000000	0.000000	-0.000000	0.000000	0.000000	2.409214	0.085114	0.138187	0.000000	0.000000	0.000000	-0.000000	0.000000	0.000000	2.377711	0.084690	0.144622	0.000000	0.000000	0.000000	-0.000000	0.000000	0.000000	2.379674	0.079500	0.164744	0.000000	0.000000	0.000000	-0.000000	0.000000	0.000000	2.294376	0.096208	0.113808	0.000000	0.000000	0.000000	-0.000000	0.000000	0.000000	2.347918	0.085156	0.148008	0.000000	0.000000	0.000000	-0.000000	0.000000	0.000000	2.228743	0.087019	0.161554	0.000000	0.000000	0.000000
0.217221	-0.000000	0.000000	-0.000000	1.143781	0.227579	0.392196	0.000000	0.000000	0.000000	-0.000000	0.000000	-0.000000	1.168584	0.246216	0.413705	0.000000	0.000000	0.000000	-0.000000	0.000000	-0.000000	1.186361	0.255003	0.411812	0.000000	0.000000	0.000000	-0.000000	0.000000	-0.000000	1.183581	0.253618	0.389427	0.000000	0.000000	0.000000	-0.000000	0.000000	-0.000000	1.228830	0.292597	0.442923	0.000000	0.000000	0.000000	-0.000000	0.000000	-0.000000	1.200223	0.268073	0.406857	0.000000	0.000000	0.000000	-0.000000	0.000000	-0.000000	1.255670	0.320353	0.387037	0.000000	0.000000	0.000000	-0.000000	0.000000	0.000000	2.475114	0.077178	0.159521	0.000000	0.000000	0.000000	-0.000000	0.000000	0.000000	2.432246	0.083394	0.137726	0.000000	0.000000	0.000000	-0.000000	0.000000	0.000000	2.400900	0.082993	0.144078	0.000000	0.000000	0.000000	-0.000000	0.000000	0.000000	2.402867	0.077686	0.164078	0.000000	0.000000	0.000000	-0.000000	0.000000	0.000000	2.317533	0.094552	0.113412	0.000000	0.000000	0.000000	-0.000000	0.000000	0.000000	2.371098	0.083387	0.147429	0.000000	0.000000	0.000000	-0.000000	0.000000	0.000000	2.251890	0.084964	0.160829	0.000000	0.000000	0.000000
0.218702	-0.000000	0.000000	-0.000000	1.165375	0.229770	0.392599	0.000000	0.000000	0.000000	-0.000000	0.000000	-0.000000	1.190286	0.248401	0.414009	0.000000	0.000000	0.000000	-0.000000	0.000000	-0.000000	1.208091	0.257169	0.412057	0.000000	0.000000	0.000000	-0.000000	0.000000	-0.000000	1.205264	0.255772	0.389682	0.000000	0.000000	0.000000	-0.000000	0.000000	-0.000000	1.250755	0.294747	0.442982	0.000000	0.000000	0.000000	-0.000000	0.000000	-0.000000	1.221991	0.270223	0.407039	0.000000	0.000000	0.000000	-0.000000	0.000000	-0.000000	1.277588	0.322440	0.386967	0.000000	0.000000	0.000000	-0.000000	0.000000	0.000000	2.491335	0.075795	0.159090	0.000000	0.000000	0.000000	-0.000000	0.000000	0.000000	2.448462	0.082093	0.137398	0.000000	0.000000	0.000000	-0.000000	0.000000	0.000000	2.417207	0.081701	0.143698	0.000000	0.000000	0.000000	-0.000000	0.000000	0.000000	2.419175	0.076309	0.163606	0.000000	0.000000	0.000000	-0.000000	0.000000	0.000000	2.333826	0.093310	0.113146	0.000000	0.000000	0.000000	-0.000000	0.000000	0.000000	2.387400	0.082051	0.147023	0.000000	0.000000	0.000000	-0.000000	0.000000	0.000000	2.268172	0.083450	0.160324	0.000000	0.000000	0.000000
0.219349	-0.000000	0.000000	-0.000000	1.174860	0.230702	0.392784	0.000000	0.000000	0.000000	-0.000000	0.000000	-0.000000	1.199815	0.249330	0.414149	0.000000	0.000000	0.000000	-0.000000	0.000000	-0.000000	1.217631	0.258092	0.412172	0.000000	0.000000	0.000000	-0.000000	0.000000	-0.000000	1.214782	0.256688	0.389800	0.000000	0.000000	0.000000	-0.000000	0.000000	-0.000000	1.260372	0.295665	0.443013	0.000000	0.000000	0.000000	-0.000000	0.000000	-0.000000	1.231544	0.271139	0.407126	0.000000	0.000000	0.000000	-0.000000	0.000000	-0.000000	1.287194	0.323330	0.386941	0.000000	0.000000	0.000000	-0.000000	0.000000	0.000000	2.498294	0.075175	0.158906	0.000000	0.000000	0.000000	-0.000000	0.000000	0.000000	2.455421	0.081509	0.137258	0.000000	0.000000	0.000000	-0.000000	0.000000	0.000000	2.424199	0.081119	0.143537	0.000000	0.000000	0.000000	-0.000000	0.000000	0.000000	2.426166	0.075690	0.163404	0.000000	0.000000	0.000000	-0.000000	0.000000	0.000000	2.340814	0.092756	0.113038	0.000000	0.000000	0.000000	-0.000000	0.000000	0.000000	2.394390	0.081451	0.146852	0.000000	0.000000	0.000000	-0.000000	0.000000	0.000000	2.275155	0.082782	0.160112	0.000000	0.000000	0.000000
0.221393	-0.000000	0.000000	-0.000000	1.205047	0.233540	0.393397	0.000000	0.000000	0.000000	-0.000000	0.000000	-0.000000	1.230126	0.252167	0.414620	0.000000	0.000000	0.000000	-0.000000	0.000000	-0.000000	1.247966	0.260911	0.412560	0.000000	0.000000	0.000000	-0.000000	0.000000	-0.000000	1.245052	0.259488	0.390202	0.000000	0.000000	0.000000	-0.000000	0.000000	-0.000000	1.290921	0.298477	0.443136	0.000000	0.000000	0.000000	-0.000000	0.000000	-0.000000	1.261910	0.273942	0.407424	0.000000	0.000000	0.000000	-0.000000	0.000000	-0.000000	1.317686	0.326064	0.386881	0.000000	0.000000	0.000000	-0.000000	0.000000	0.000000	2.519795	0.073144	0.158349	0.000000	0.000000	0.000000	-0.000000	0.000000	0.000000	2.476924	0.079596	0.136835	0.000000	0.000000	0.000000	-0.000000	0.000000	0.000000	2.445782	0.079202	0.143056	0.000000	0.000000	0.000000	-0.000000	0.000000	0.000000	2.447744	0.073657	0.162796	0.000000	0.000000	0.000000	-0.000000	0.000000	0.000000	2.362395	0.090948	0.112732	0.000000	0.000000	0.000000	-0.000000	0.000000	0.000000	2.415968	0.079490	0.146342	0.000000	0.000000	0.000000	-0.000000	0.000000	0.000000	2.296712	0.080639	0.159485	0.000000	0.000000	0.000000
0.222874	-0.000000	0.000000	-0.000000	1.227129	0.235498	0.393869	0.000000	0.000000	0.000000	-0.000000	0.000000	-0.000000	1.252282	0.254130	0.414988	0.000000	0.000000	0.000000	-0.000000	0.000000	-0.000000	1.270133	0.262865	0.412867	0.000000	0.000000	0.000000	-0.000000	0.000000	-0.000000	1.267171	0.261426	0.390519	0.000000	0.000000	0.000000	-0.000000	0.000000	-0.000000	1.313214	0.300435	0.443247	0.000000	0.000000	0.000000	-0.000000	0.000000	-0.000000	1.284089	0.275886	0.407665	0.000000	0.000000	0.000000	-0.000000	0.000000	-0.000000	1.339913	0.327969	0.386858	0.000000	0.000000	0.000000	-0.000000	0.000000	0.000000	2.534921	0.071595	0.157979	0.000000	0.000000	0.000000	-0.000000	0.000000	0.000000	2.492057	0.078135	0.136558	0.000000	0.000000	0.000000	-0.000000	0.000000	0.000000	2.460951	0.077734	0.142745	0.000000	0.000000	0.000000	-0.000000	0.000000	0.000000	2.462905	0.072108	0.162393	0.000000	0.000000	0.000000	-0.000000	0.000000	0.000000	2.377571	0.089579	0.112554	0.000000	0.000000	0.000000	-0.000000	0.000000	0.000000	2.431134	0.077998	0.146013	0.000000	0.000000	0.000000	-0.000000	0.000000	0.000000	2.311867	0.079054	0.159083	0.000000	0.000000	0.000000
0.223521	-0.000000	0.000000	-0.000000	1.236825	0.236327	0.394083	0.000000	0.000000	0.000000	-0.000000	0.000000	-0.000000	1.262007	0.254962	0.415156	0.000000	0.000000	0.000000	-0.000000	0.000000	-0.000000	1.279861	0.263694	0.413008	0.000000	0.000000	0.000000	-0.000000	0.000000	-0.000000	1.276879	0.262249	0.390664	0.000000	0.000000	0.000000	-0.000000	0.000000	-0.000000	1.322989	0.301268	0.443301	0.000000	0.000000	0.000000	-0.000000	0.000000	-0.000000	1.293819	0.276712	0.407777	0.000000	0.000000	0.000000	-0.000000	0.000000	-0.000000	1.349653	0.328781	0.386854	0.000000	0.000000	0.000000	-0.000000	0.000000	0.000000	2.541408	0.070897	0.157829	0.000000	0.000000	0.000000	-0.000000	0.000000	0.000000	2.498549	0.077476	0.136447	0.000000	0.000000	0.000000	-0.000000	0.000000	0.000000	2.467453	0.077071	0.142621	0.000000	0.000000	0.000000	-0.000000	0.000000	0.000000	2.469403	0.071410	0.162229	0.000000	0.000000	0.000000	-0.000000	0.000000	0.000000	2.384080	0.088965	0.112490	0.000000	0.000000	0.000000	-0.000000	0.000000	0.000000	2.437635	0.077328	0.145882	0.000000	0.000000	0.000000	-0.000000	0.000000	0.000000	2.318364	0.078354	0.158925	0.000000	0.000000	0.000000
